#!OML:ASF F:\VICON\USERDATA\INSTALL\rory7\rory7.ASF
:FULLY-SPECIFIED
:DEGREES
793
root -0.0402566 18.8092 4.21758 -4.48925 -5.53327 -0.0654998
lowerback 5.57128 1.53153 -0.17459
upperback -1.0452 1.94912 -1.98303
thorax -4.14172 0.947239 -2.12846
lowerneck -7.49365 -5.86329 -6.29582
upperneck -7.57333 -7.07813 8.89767
head -0.530596 -3.42252 3.84535
rclavicle -1.23246e-014 2.22639e-014
rhumerus 43.5536 -7.57601 -46.8588
rradius 122.65
rwrist 15.8743
rhand -42.6983 18.5585
rfingers 7.12502
rthumb -15.5678 -10.8349
lclavicle -1.23246e-014 2.22639e-014
lhumerus -36.2685 15.4791 67.5994
lradius 20.6026
lwrist -11.082
lhand -25.2161 21.7126
lfingers 7.12502
lthumb 1.30289 51.6884
rfemur 0 0 0
rtibia 0
rfoot 0 0
rtoes 0
lfemur 8.16352 -9.84442 -19.0746
ltibia 10.8339
lfoot -13.9759 21.8078
ltoes -4.94451
794
root -0.0413207 18.809 4.21727 -4.47165 -5.54682 -0.0954312
lowerback 5.57601 1.53267 -0.148683
upperback -1.0986 1.95145 -1.98591
thorax -4.19881 0.947108 -2.14767
lowerneck -7.31683 -5.87423 -6.1625
upperneck -8.25055 -7.0806 8.70143
head -0.795427 -3.43346 3.77386
rclavicle 2.5842e-015 -1.11319e-014
rhumerus 43.8266 -7.75044 -46.7173
rradius 122.635
rwrist 15.8971
rhand -42.7356 19.0931
rfingers 7.12502
rthumb -15.6037 -10.2976
lclavicle 2.5842e-015 -1.11319e-014
lhumerus -36.2514 15.4244 67.5908
lradius 20.4294
lwrist -10.9114
lhand -25.1284 21.2003
lfingers 7.12502
lthumb 1.38758 51.1755
rfemur 0 0 0
rtibia 0
rfoot 0 0
rtoes 0
lfemur 8.09978 -9.83523 -19.0272
ltibia 10.8991
lfoot -13.9814 21.8005
ltoes -4.96768
795
root -0.0403656 18.8075 4.22261 -4.44966 -5.58932 -0.0543369
lowerback 5.4762 1.54041 -0.162957
upperback -1.12066 1.96024 -2.0228
thorax -4.16425 0.951571 -2.17575
lowerneck -7.14698 -5.89395 -5.75049
upperneck -9.05424 -7.11898 8.20539
head -1.12014 -3.46733 3.55096
rclavicle -1.43622e-014 -1.59028e-015
rhumerus 44.1195 -7.97673 -46.6087
rradius 122.623
rwrist 15.8371
rhand -48.9655 15.3574
rfingers 7.12502
rthumb -21.5959 -13.4585
lclavicle -1.43622e-014 -1.59028e-015
lhumerus -36.2351 15.2953 67.628
lradius 20.2834
lwrist -10.3743
lhand -25.2374 21.2298
lfingers 7.12502
lthumb 1.28227 51.2057
rfemur 0 0 0
rtibia 0
rfoot 0 0
rtoes 0
lfemur 8.09773 -9.90956 -19.1031
ltibia 10.9129
lfoot -14.0551 21.9023
ltoes -4.75115
796
root -0.0401574 18.8052 4.22831 -4.46374 -5.63994 -0.0539951
lowerback 5.44096 1.52862 -0.154889
upperback -1.15131 1.94413 -2.04464
thorax -4.17574 0.942906 -2.20103
lowerneck -7.19383 -5.87362 -5.51228
upperneck -9.53481 -7.09311 7.9272
head -1.29112 -3.45982 3.42432
rclavicle 3.69739e-014 9.54166e-015
rhumerus 44.4216 -8.15862 -46.5153
rradius 122.63
rwrist 15.7273
rhand -47.3492 14.6181
rfingers 7.12502
rthumb -20.0429 -14.3681
lclavicle 3.69739e-014 9.54166e-015
lhumerus -36.3443 15.267 67.5569
lradius 20.2325
lwrist -10.1022
lhand -25.2251 21.6854
lfingers 7.12502
lthumb 1.29413 51.6613
rfemur 0 0 0
rtibia 0
rfoot 0 0
rtoes 0
lfemur 8.1703 -9.91399 -19.1258
ltibia 10.8587
lfoot -14.0436 21.9817
ltoes -4.72149
797
root -0.0415572 18.803 4.23067 -4.51681 -5.67277 -0.0987186
lowerback 5.52475 1.5035 -0.136134
upperback -1.20541 1.91004 -2.04135
thorax -4.28003 0.924498 -2.20935
lowerneck -7.37211 -5.83779 -5.59331
upperneck -9.67785 -7.02197 8.00111
head -1.30693 -3.41971 3.46477
rclavicle -1.04859e-014 0
rhumerus 44.6991 -8.3147 -46.3716
rradius 122.623
rwrist 15.5919
rhand -45.8774 14.2411
rfingers 7.12502
rthumb -18.6278 -14.887
lclavicle -1.04859e-014 0
lhumerus -36.5507 15.3513 67.3822
lradius 20.2373
lwrist -10.2076
lhand -25.142 22.2821
lfingers 7.12502
lthumb 1.37438 52.2574
rfemur 0 0 0
rtibia 0
rfoot 0 0
rtoes 0
lfemur 8.27996 -9.88079 -19.0806
ltibia 10.7761
lfoot -13.9884 21.9816
ltoes -4.89606
798
root -0.042542 18.8028 4.23349 -4.54727 -5.69115 -0.0971834
lowerback 5.55168 1.47932 -0.162593
upperback -1.25607 1.87444 -2.04598
thorax -4.3499 0.906681 -2.19826
lowerneck -7.49715 -5.80721 -5.84714
upperneck -9.82888 -6.94044 8.26646
head -1.32203 -3.37199 3.6061
rclavicle -1.61016e-014 2.38542e-015
rhumerus 44.9771 -8.47969 -46.176
rradius 122.547
rwrist 15.4438
rhand -46.3683 15.4855
rfingers 7.12502
rthumb -19.0999 -13.5966
lclavicle -1.61016e-014 2.38542e-015
lhumerus -36.7612 15.4318 67.2356
lradius 20.2745
lwrist -10.3269
lhand -25.4519 22.6603
lfingers 7.12502
lthumb 1.07512 52.6373
rfemur 0 0 0
rtibia 0
rfoot 0 0
rtoes 0
lfemur 8.34457 -9.86113 -19.0891
ltibia 10.7476
lfoot -13.993 21.959
ltoes -4.91614
799
root -0.0428158 18.8023 4.23679 -4.56359 -5.69371 -0.0662549
lowerback 5.54897 1.45567 -0.196349
upperback -1.30449 1.8387 -2.06748
thorax -4.40038 0.888953 -2.19946
lowerneck -7.65446 -5.80443 -6.16104
upperneck -9.95863 -6.88858 8.58101
head -1.31876 -3.33667 3.77419
rclavicle 1.88348e-014 -2.62396e-014
rhumerus 45.2666 -8.65314 -45.9913
rradius 122.47
rwrist 15.419
rhand -47.9753 15.4423
rfingers 7.12502
rthumb -20.6446 -13.4798
lclavicle 1.88348e-014 -2.62396e-014
lhumerus -36.8976 15.61 67.0293
lradius 20.2302
lwrist -10.6955
lhand -25.9709 22.9069
lfingers 7.12502
lthumb 0.573892 52.8858
rfemur 0 0 0
rtibia 0
rfoot 0 0
rtoes 0
lfemur 8.36012 -9.89091 -19.1425
ltibia 10.7833
lfoot -14.0173 22.0149
ltoes -5.01156
800
root -0.0446716 18.8004 4.23971 -4.62339 -5.74593 -0.112581
lowerback 5.62415 1.44933 -0.157644
upperback -1.36391 1.83089 -2.06995
thorax -4.50376 0.882961 -2.227
lowerneck -7.76516 -5.80993 -6.45668
upperneck -10.1553 -6.84971 8.83997
head -1.34773 -3.30859 3.92399
rclavicle -9.93923e-016 1.66979e-014
rhumerus 45.5219 -8.81552 -45.8247
rradius 122.43
rwrist 15.392
rhand -46.266 14.4624
rfingers 7.12502
rthumb -19.0015 -14.6294
lclavicle -9.93923e-016 1.66979e-014
lhumerus -37.0266 15.8728 66.7269
lradius 20.1235
lwrist -11.3372
lhand -25.9599 22.9475
lfingers 7.12502
lthumb 0.584475 52.9265
rfemur 0 0 0
rtibia 0
rfoot 0 0
rtoes 0
lfemur 8.42942 -9.89378 -19.106
ltibia 10.829
lfoot -14.0555 22.0773
ltoes -5.23983
801
root -0.0471696 18.799 4.24087 -4.69839 -5.84049 -0.278615
lowerback 5.72222 1.4461 -0.00295024
upperback -1.41688 1.83749 -2.03697
thorax -4.61041 0.881356 -2.28484
lowerneck -7.89944 -5.7507 -6.67669
upperneck -10.3617 -6.72594 9.0973
head -1.38607 -3.24015 4.06262
rclavicle -1.95306e-014 2.78299e-014
rhumerus 45.7253 -8.96797 -45.6427
rradius 122.396
rwrist 15.3021
rhand -47.6451 14.6742
rfingers 7.12502
rthumb -20.3274 -14.282
lclavicle -1.95306e-014 2.78299e-014
lhumerus -37.1611 15.9766 66.5219
lradius 20.0185
lwrist -11.6338
lhand -25.9581 22.5879
lfingers 7.12502
lthumb 0.58625 52.5669
rfemur 0 0 0
rtibia 0
rfoot 0 0
rtoes 0
lfemur 8.50849 -9.87871 -18.9303
ltibia 10.8899
lfoot -14.0813 22.1408
ltoes -5.4257
802
root -0.0477337 18.7979 4.24162 -4.75487 -5.8745 -0.365367
lowerback 5.77637 1.43004 0.0877852
upperback -1.42518 1.82232 -2.03395
thorax -4.64761 0.870972 -2.33326
lowerneck -8.16284 -5.68334 -6.72301
upperneck -10.5494 -6.60246 9.20214
head -1.40815 -3.17313 4.10988
rclavicle -7.7526e-015 -3.97569e-015
rhumerus 45.9404 -9.19172 -45.4554
rradius 122.38
rwrist 15.2485
rhand -47.9514 15.1152
rfingers 7.12502
rthumb -20.6217 -13.8094
lclavicle -7.7526e-015 -3.97569e-015
lhumerus -37.1751 15.9759 66.4506
lradius 19.8909
lwrist -11.5551
lhand -26.2305 22.3684
lfingers 7.12502
lthumb 0.323093 52.3479
rfemur 0 0 0
rtibia 0
rfoot 0 0
rtoes 0
lfemur 8.53258 -9.87304 -18.8413
ltibia 10.9809
lfoot -14.1239 22.1386
ltoes -5.56779
803
root -0.0481437 18.7958 4.24448 -4.81364 -5.86471 -0.334596
lowerback 5.81576 1.42332 0.0693451
upperback -1.42709 1.80952 -2.07689
thorax -4.67168 0.864266 -2.36764
lowerneck -8.21022 -5.68601 -6.55679
upperneck -11.0382 -6.60042 8.98557
head -1.57706 -3.17574 4.01498
rclavicle -1.06847e-014 3.81667e-014
rhumerus 46.1603 -9.44738 -45.2781
rradius 122.352
rwrist 15.2048
rhand -46.3459 15.8432
rfingers 7.12502
rthumb -19.0783 -13.2411
lclavicle -1.06847e-014 3.81667e-014
lhumerus -37.1437 16.0215 66.3512
lradius 19.7657
lwrist -11.5648
lhand -26.3215 22.2819
lfingers 7.12502
lthumb 0.235262 52.2616
rfemur 0 0 0
rtibia 0
rfoot 0 0
rtoes 0
lfemur 8.5753 -9.86735 -18.8861
ltibia 11.0511
lfoot -14.209 22.0688
ltoes -5.38152
804
root -0.0497792 18.795 4.24703 -4.83593 -5.87727 -0.333625
lowerback 5.83289 1.42182 0.0813587
upperback -1.48004 1.80561 -2.11621
thorax -4.7352 0.860558 -2.41677
lowerneck -8.11263 -5.70048 -6.40218
upperneck -11.5524 -6.62164 8.77761
head -1.77724 -3.19237 3.93164
rclavicle 3.8763e-015 1.43125e-014
rhumerus 46.3823 -9.64795 -45.1597
rradius 122.302
rwrist 15.2454
rhand -45.3869 16.4113
rfingers 7.12502
rthumb -18.1559 -12.7613
lclavicle 3.8763e-015 1.43125e-014
lhumerus -37.1916 15.6755 66.47
lradius 19.8233
lwrist -10.9355
lhand -26.0648 22.43
lfingers 7.12502
lthumb 0.483189 52.4092
rfemur 0 0 0
rtibia 0
rfoot 0 0
rtoes 0
lfemur 8.60795 -9.87644 -18.8923
ltibia 11.0683
lfoot -14.2562 22.0429
ltoes -5.08198
805
root -0.0504326 18.7964 4.24958 -4.81575 -5.88629 -0.353826
lowerback 5.81481 1.40803 0.119616
upperback -1.53297 1.78814 -2.1455
thorax -4.77883 0.849684 -2.46776
lowerneck -8.2328 -5.69318 -6.35441
upperneck -11.8472 -6.59749 8.71905
head -1.86139 -3.17938 3.90837
rclavicle -6.95746e-015 -9.54166e-015
rhumerus 46.6496 -9.87702 -45.088
rradius 122.266
rwrist 15.3003
rhand -45.5872 16.3604
rfingers 7.12502
rthumb -18.3486 -12.7942
lclavicle -6.95746e-015 -9.54166e-015
lhumerus -37.2568 15.3188 66.6211
lradius 19.9154
lwrist -10.2088
lhand -25.9534 22.5816
lfingers 7.12502
lthumb 0.590757 52.5605
rfemur 0 0 0
rtibia 0
rfoot 0 0
rtoes 0
lfemur 8.60385 -9.88245 -18.8678
ltibia 11.0565
lfoot -14.2599 22.0484
ltoes -5.10363
806
root -0.0498624 18.7967 4.25241 -4.80845 -5.88871 -0.342655
lowerback 5.83481 1.39638 0.118017
upperback -1.5929 1.77021 -2.16801
thorax -4.85286 0.839465 -2.4907
lowerneck -8.29372 -5.66842 -6.38241
upperneck -12.2564 -6.5388 8.73484
head -1.99256 -3.1487 3.93303
rclavicle 7.7526e-015 9.54166e-015
rhumerus 46.8802 -10.1589 -44.9749
rradius 122.241
rwrist 15.2362
rhand -46.4222 16.3891
rfingers 7.12502
rthumb -19.1517 -12.6879
lclavicle 7.7526e-015 9.54166e-015
lhumerus -37.3797 15.6162 66.3124
lradius 19.8027
lwrist -10.8345
lhand -26.1784 22.3677
lfingers 7.12502
lthumb 0.373442 52.3471
rfemur 0 0 0
rtibia 0
rfoot 0 0
rtoes 0
lfemur 8.61599 -9.93306 -18.8936
ltibia 11.036
lfoot -14.2731 22.1252
ltoes -5.06125
807
root -0.0495023 18.7967 4.25411 -4.8088 -5.91462 -0.287948
lowerback 5.86461 1.39732 0.0678898
upperback -1.66109 1.76475 -2.19591
thorax -4.9419 0.83659 -2.49374
lowerneck -8.20914 -5.6343 -6.51247
upperneck -12.7967 -6.45491 8.8787
head -2.1891 -3.10645 4.0336
rclavicle 4.27387e-015 1.98785e-014
rhumerus 47.0931 -10.438 -44.8279
rradius 122.22
rwrist 15.1245
rhand -46.882 16.4813
rfingers 7.12502
rthumb -19.5938 -12.5513
lclavicle 4.27387e-015 1.98785e-014
lhumerus -37.5246 15.8329 66.0446
lradius 19.7294
lwrist -11.4444
lhand -26.3052 22.3777
lfingers 7.12502
lthumb 0.250945 52.3572
rfemur 0 0 0
rtibia 0
rfoot 0 0
rtoes 0
lfemur 8.63741 -9.97629 -18.9695
ltibia 11.0106
lfoot -14.2987 22.2016
ltoes -4.79931
808
root -0.0496459 18.7965 4.25651 -4.82452 -5.95566 -0.272927
lowerback 5.86303 1.39603 0.0654979
upperback -1.67205 1.76161 -2.21798
thorax -4.95199 0.834596 -2.51528
lowerneck -8.45249 -5.62742 -6.51799
upperneck -13.0691 -6.41811 8.88426
head -2.24276 -3.08331 4.0388
rclavicle 4.27387e-015 9.54166e-015
rhumerus 47.4013 -10.7112 -44.7178
rradius 122.2
rwrist 15.0701
rhand -46.9909 16.345
rfingers 7.12502
rthumb -19.6986 -12.677
lclavicle 4.27387e-015 9.54166e-015
lhumerus -37.5496 15.8875 65.9652
lradius 19.6757
lwrist -11.5051
lhand -26.3125 22.4659
lfingers 7.12502
lthumb 0.243919 52.4455
rfemur 0 0 0
rtibia 0
rfoot 0 0
rtoes 0
lfemur 8.69082 -9.95467 -18.996
ltibia 10.9866
lfoot -14.3208 22.221
ltoes -4.76391
